<mxfile host="app.diagrams.net" agent="Mozilla/5.0 (X11; Linux x86_64) AppleWebKit/537.36 (KHTML, like Gecko) Chrome/114.0.0.0 Safari/537.36" version="24.7.17">
  <diagram id="C5RBs43oDa-KdzZeNtuy" name="Page-1">
    <mxGraphModel dx="1048" dy="495" grid="1" gridSize="10" guides="1" tooltips="1" connect="1" arrows="1" fold="1" page="1" pageScale="1" pageWidth="827" pageHeight="1169" math="0" shadow="0">
      <root>
        <mxCell id="WIyWlLk6GJQsqaUBKTNV-0" />
        <mxCell id="WIyWlLk6GJQsqaUBKTNV-1" parent="WIyWlLk6GJQsqaUBKTNV-0" />
        <mxCell id="rFnfXxXD_jbVj-EgVcXd-2" value="" style="edgeStyle=orthogonalEdgeStyle;rounded=0;orthogonalLoop=1;jettySize=auto;html=1;" edge="1" parent="WIyWlLk6GJQsqaUBKTNV-1" source="rFnfXxXD_jbVj-EgVcXd-0" target="rFnfXxXD_jbVj-EgVcXd-1">
          <mxGeometry relative="1" as="geometry" />
        </mxCell>
        <mxCell id="rFnfXxXD_jbVj-EgVcXd-0" value="Bắt đầu" style="ellipse;whiteSpace=wrap;html=1;" vertex="1" parent="WIyWlLk6GJQsqaUBKTNV-1">
          <mxGeometry x="280" y="60" width="120" height="80" as="geometry" />
        </mxCell>
        <mxCell id="rFnfXxXD_jbVj-EgVcXd-5" value="" style="edgeStyle=orthogonalEdgeStyle;rounded=0;orthogonalLoop=1;jettySize=auto;html=1;" edge="1" parent="WIyWlLk6GJQsqaUBKTNV-1" source="rFnfXxXD_jbVj-EgVcXd-1" target="rFnfXxXD_jbVj-EgVcXd-4">
          <mxGeometry relative="1" as="geometry" />
        </mxCell>
        <mxCell id="rFnfXxXD_jbVj-EgVcXd-1" value="Nhập n (year)" style="shape=parallelogram;perimeter=parallelogramPerimeter;whiteSpace=wrap;html=1;fixedSize=1;" vertex="1" parent="WIyWlLk6GJQsqaUBKTNV-1">
          <mxGeometry x="280" y="190" width="120" height="60" as="geometry" />
        </mxCell>
        <mxCell id="rFnfXxXD_jbVj-EgVcXd-7" value="" style="edgeStyle=orthogonalEdgeStyle;rounded=0;orthogonalLoop=1;jettySize=auto;html=1;" edge="1" parent="WIyWlLk6GJQsqaUBKTNV-1" source="rFnfXxXD_jbVj-EgVcXd-4" target="rFnfXxXD_jbVj-EgVcXd-6">
          <mxGeometry relative="1" as="geometry" />
        </mxCell>
        <mxCell id="rFnfXxXD_jbVj-EgVcXd-10" value="" style="edgeStyle=orthogonalEdgeStyle;rounded=0;orthogonalLoop=1;jettySize=auto;html=1;" edge="1" parent="WIyWlLk6GJQsqaUBKTNV-1" source="rFnfXxXD_jbVj-EgVcXd-4" target="rFnfXxXD_jbVj-EgVcXd-9">
          <mxGeometry relative="1" as="geometry" />
        </mxCell>
        <mxCell id="rFnfXxXD_jbVj-EgVcXd-4" value="n %4 =0" style="rhombus;whiteSpace=wrap;html=1;" vertex="1" parent="WIyWlLk6GJQsqaUBKTNV-1">
          <mxGeometry x="300" y="290" width="80" height="80" as="geometry" />
        </mxCell>
        <mxCell id="rFnfXxXD_jbVj-EgVcXd-6" value="không năm nhuận" style="whiteSpace=wrap;html=1;" vertex="1" parent="WIyWlLk6GJQsqaUBKTNV-1">
          <mxGeometry x="440" y="300" width="120" height="60" as="geometry" />
        </mxCell>
        <mxCell id="rFnfXxXD_jbVj-EgVcXd-8" value="no" style="text;html=1;align=center;verticalAlign=middle;whiteSpace=wrap;rounded=0;" vertex="1" parent="WIyWlLk6GJQsqaUBKTNV-1">
          <mxGeometry x="370" y="300" width="60" height="30" as="geometry" />
        </mxCell>
        <mxCell id="rFnfXxXD_jbVj-EgVcXd-13" value="" style="edgeStyle=orthogonalEdgeStyle;rounded=0;orthogonalLoop=1;jettySize=auto;html=1;" edge="1" parent="WIyWlLk6GJQsqaUBKTNV-1" source="rFnfXxXD_jbVj-EgVcXd-9" target="rFnfXxXD_jbVj-EgVcXd-12">
          <mxGeometry relative="1" as="geometry" />
        </mxCell>
        <mxCell id="rFnfXxXD_jbVj-EgVcXd-16" value="" style="edgeStyle=orthogonalEdgeStyle;rounded=0;orthogonalLoop=1;jettySize=auto;html=1;" edge="1" parent="WIyWlLk6GJQsqaUBKTNV-1" source="rFnfXxXD_jbVj-EgVcXd-9" target="rFnfXxXD_jbVj-EgVcXd-15">
          <mxGeometry relative="1" as="geometry" />
        </mxCell>
        <mxCell id="rFnfXxXD_jbVj-EgVcXd-9" value="n %100 =0" style="rhombus;whiteSpace=wrap;html=1;" vertex="1" parent="WIyWlLk6GJQsqaUBKTNV-1">
          <mxGeometry x="300" y="420" width="80" height="80" as="geometry" />
        </mxCell>
        <mxCell id="rFnfXxXD_jbVj-EgVcXd-11" value="yes" style="text;html=1;align=center;verticalAlign=middle;whiteSpace=wrap;rounded=0;" vertex="1" parent="WIyWlLk6GJQsqaUBKTNV-1">
          <mxGeometry x="330" y="370" width="60" height="30" as="geometry" />
        </mxCell>
        <mxCell id="rFnfXxXD_jbVj-EgVcXd-12" value="&amp;nbsp;năm nhuận" style="whiteSpace=wrap;html=1;" vertex="1" parent="WIyWlLk6GJQsqaUBKTNV-1">
          <mxGeometry x="440" y="430" width="120" height="60" as="geometry" />
        </mxCell>
        <mxCell id="rFnfXxXD_jbVj-EgVcXd-14" value="no" style="text;html=1;align=center;verticalAlign=middle;whiteSpace=wrap;rounded=0;" vertex="1" parent="WIyWlLk6GJQsqaUBKTNV-1">
          <mxGeometry x="380" y="430" width="60" height="40" as="geometry" />
        </mxCell>
        <mxCell id="rFnfXxXD_jbVj-EgVcXd-21" value="" style="edgeStyle=orthogonalEdgeStyle;rounded=0;orthogonalLoop=1;jettySize=auto;html=1;" edge="1" parent="WIyWlLk6GJQsqaUBKTNV-1" source="rFnfXxXD_jbVj-EgVcXd-15" target="rFnfXxXD_jbVj-EgVcXd-18">
          <mxGeometry relative="1" as="geometry" />
        </mxCell>
        <mxCell id="rFnfXxXD_jbVj-EgVcXd-23" value="" style="edgeStyle=orthogonalEdgeStyle;rounded=0;orthogonalLoop=1;jettySize=auto;html=1;" edge="1" parent="WIyWlLk6GJQsqaUBKTNV-1" source="rFnfXxXD_jbVj-EgVcXd-15" target="rFnfXxXD_jbVj-EgVcXd-22">
          <mxGeometry relative="1" as="geometry" />
        </mxCell>
        <mxCell id="rFnfXxXD_jbVj-EgVcXd-15" value="n%400=0" style="rhombus;whiteSpace=wrap;html=1;" vertex="1" parent="WIyWlLk6GJQsqaUBKTNV-1">
          <mxGeometry x="300" y="545" width="80" height="80" as="geometry" />
        </mxCell>
        <mxCell id="rFnfXxXD_jbVj-EgVcXd-17" value="yes" style="text;html=1;align=center;verticalAlign=middle;whiteSpace=wrap;rounded=0;" vertex="1" parent="WIyWlLk6GJQsqaUBKTNV-1">
          <mxGeometry x="330" y="500" width="60" height="30" as="geometry" />
        </mxCell>
        <mxCell id="rFnfXxXD_jbVj-EgVcXd-18" value="năm nhuận" style="whiteSpace=wrap;html=1;" vertex="1" parent="WIyWlLk6GJQsqaUBKTNV-1">
          <mxGeometry x="440" y="555" width="120" height="60" as="geometry" />
        </mxCell>
        <mxCell id="rFnfXxXD_jbVj-EgVcXd-22" value="không năm nhuận" style="whiteSpace=wrap;html=1;" vertex="1" parent="WIyWlLk6GJQsqaUBKTNV-1">
          <mxGeometry x="280" y="680" width="120" height="60" as="geometry" />
        </mxCell>
        <mxCell id="rFnfXxXD_jbVj-EgVcXd-24" value="yes" style="text;html=1;align=center;verticalAlign=middle;whiteSpace=wrap;rounded=0;" vertex="1" parent="WIyWlLk6GJQsqaUBKTNV-1">
          <mxGeometry x="380" y="555" width="60" height="30" as="geometry" />
        </mxCell>
        <mxCell id="rFnfXxXD_jbVj-EgVcXd-25" value="no" style="text;html=1;align=center;verticalAlign=middle;whiteSpace=wrap;rounded=0;" vertex="1" parent="WIyWlLk6GJQsqaUBKTNV-1">
          <mxGeometry x="340" y="630" width="60" height="30" as="geometry" />
        </mxCell>
      </root>
    </mxGraphModel>
  </diagram>
</mxfile>
